<svg width="32" height="32" viewBox="0 0 32 32" fill="none" xmlns="http://www.w3.org/2000/svg">
<path d="M26.5514 3.48137C26.2762 3.05991 25.8742 3.04781 25.416 3.03401C25.3641 3.03245 25.3115 3.03087 25.2582 3.02866C25.2177 3.0268 25.1729 3.02752 25.1261 3.02827C24.9404 3.03125 24.723 3.03474 24.6135 2.87862C24.4866 2.69761 24.4986 2.34782 24.5085 2.05905C24.5117 1.9678 24.5146 1.88259 24.5129 1.81078C24.495 1.13997 24.4578 0.427388 24.1989 0.189174C24.0036 0.0104463 23.4194 0.0352067 22.8807 0.0580417C22.7061 0.0654442 22.5362 0.0726443 22.3859 0.0726443H10.9186C10.6877 0.0726443 10.4457 0.0538439 10.2079 0.0353716C9.74449 -0.000622723 9.29716 -0.0353715 8.9795 0.0726443C8.51849 0.230172 8.48727 1.05795 8.45788 1.83742L8.45629 1.87936C8.43161 2.52284 8.27214 3.01938 7.74362 2.96937C7.12891 2.91213 6.51723 2.89409 6.2393 3.45043C5.91106 4.10869 5.97875 4.79773 6.10001 6.03192C6.11733 6.20822 6.13574 6.39564 6.15425 6.59568H26.7287C26.7405 6.44947 26.753 6.30513 26.7653 6.16312C26.8617 5.05273 26.9456 4.08527 26.5514 3.48137Z" fill="#8047F8"/>
<path fill-rule="evenodd" clip-rule="evenodd" d="M7.75653 7.81975C8.07786 12.1687 8.39569 16.5227 8.71352 20.8768L8.71371 20.8794C8.88628 23.2435 9.05886 25.6076 9.23199 27.971H9.88847C9.93321 28.3409 9.98439 28.7976 10.0384 29.2792C10.1479 30.2566 10.2689 31.3364 10.3707 32H10.4433C11.112 31.7553 15.7346 29.7794 15.7367 21.9129C15.7359 21.8904 15.7366 21.868 15.7389 21.8458H14.5969C14.5416 21.8452 14.488 21.8268 14.4444 21.7932C14.4007 21.7597 14.3694 21.7129 14.3553 21.66C14.244 21.3851 14.1543 21.1021 14.0869 20.8136C13.415 21.193 12.8815 21.7725 12.5623 22.4693C12.2594 21.7556 12.2197 20.9594 12.4503 20.2198C12.6809 19.4802 13.1671 18.8442 13.8239 18.4229C13.8323 16.1274 14.6918 13.9147 16.2395 12.2034L16.2637 12.1822C16.3087 12.1433 16.3663 12.1217 16.426 12.1212C16.4606 12.1215 16.4947 12.1289 16.5262 12.1429C16.5581 12.157 16.5866 12.1777 16.61 12.2034C18.1758 13.917 19.0307 16.151 19.0042 18.4601C19.6732 18.8696 20.1693 19.5051 20.4003 20.2488C20.6313 20.9924 20.5816 21.7936 20.2603 22.5038C19.9429 21.8059 19.4089 21.226 18.7358 20.8481C18.6946 21.1277 18.6189 21.4013 18.5103 21.6627C18.4727 21.7741 18.3976 21.8458 18.3224 21.8458H17.1045C17.1064 21.8591 17.1077 21.8725 17.1085 21.886L17.109 21.889V21.8955C17.1094 21.9071 17.1094 21.9187 17.109 21.9303C17.1257 30.0227 22.0406 31.8595 22.4549 32H22.5966C22.6328 31.3626 22.7506 30.4831 22.8654 29.6257C22.9445 29.0348 23.0222 28.4544 23.0708 27.971H23.7349C23.9475 24.9941 24.1661 22.0255 24.3847 19.0569L24.3848 19.0553L24.3849 19.0545C24.6645 15.2573 24.9442 11.46 25.2111 7.64496H7.79905C7.74894 7.65475 7.75235 7.73674 7.75653 7.81975ZM16.426 12.1212L16.4248 12.1212H16.4274L16.426 12.1212Z" fill="#8047F8"/>
</svg>
